<?xml version="1.0" standalone="no"?>
<!DOCTYPE svg PUBLIC "-//W3C//DTD SVG 20010904//EN"
 "http://www.w3.org/TR/2001/REC-SVG-20010904/DTD/svg10.dtd">
<svg version="1.0" xmlns="http://www.w3.org/2000/svg"
 width="700.000000pt" height="700.000000pt" viewBox="0 0 700.000000 700.000000"
 preserveAspectRatio="xMidYMid meet">
<metadata>
Created by potrace 1.14, written by Peter Selinger 2001-2017
</metadata>
<g transform="translate(0.000000,700.000000) scale(0.100000,-0.100000)"
fill="#000000" stroke="none">
<path d="M2710 6119 c-104 -16 -214 -78 -276 -156 -173 -215 -107 -534 137
-662 32 -17 59 -29 59 -26 0 2 19 -3 42 -11 86 -30 234 -5 329 54 239 152 275
477 75 678 -69 68 -147 108 -236 120 -71 10 -86 10 -130 3z"/>
<path d="M1933 5520 c-112 -45 -183 -156 -179 -283 2 -68 3 -71 301 -669 165
-330 312 -620 327 -644 54 -86 140 -127 293 -139 44 -3 91 -8 105 -10 14 -2
57 -6 95 -10 95 -8 214 -20 310 -30 22 -3 65 -7 95 -10 30 -3 75 -7 100 -10
25 -2 70 -7 100 -10 109 -11 165 -17 168 -20 3 -2 -43 -109 -108 -250 -17 -38
-38 -85 -46 -102 -8 -18 -20 -48 -28 -66 -8 -17 -23 -52 -34 -77 -11 -25 -31
-70 -45 -100 -171 -377 -172 -380 -172 -465 0 -115 23 -154 160 -279 145 -130
159 -143 305 -271 69 -61 145 -128 170 -151 70 -63 158 -143 240 -214 40 -36
95 -84 121 -108 25 -23 58 -52 73 -63 14 -11 26 -24 26 -28 0 -4 -19 -17 -42
-30 -24 -12 -63 -34 -88 -48 -25 -14 -160 -91 -299 -171 -140 -81 -270 -159
-289 -176 -18 -16 -45 -52 -60 -80 -37 -71 -38 -188 -2 -259 66 -131 215 -192
355 -145 33 11 67 26 76 34 8 8 19 14 22 14 4 0 24 10 45 23 20 13 62 37 92
54 30 16 100 56 155 88 55 32 116 67 135 77 304 171 573 330 602 356 82 74
112 202 72 312 -21 58 -62 105 -199 225 -44 39 -127 112 -185 164 -117 105
-139 124 -260 231 -47 41 -101 89 -120 107 -19 17 -44 40 -56 50 -11 10 -109
96 -216 191 l-195 174 180 404 c99 223 183 403 186 402 4 -2 193 -120 421
-262 362 -226 421 -266 460 -314 25 -31 57 -69 71 -86 54 -62 105 -123 139
-165 19 -24 40 -48 45 -55 10 -10 89 -105 127 -151 167 -202 296 -353 312
-367 79 -65 220 -84 306 -39 61 31 117 86 143 141 32 66 31 188 -2 250 -19 36
-91 131 -121 160 -3 3 -48 57 -100 120 -52 63 -97 117 -100 120 -3 3 -106 127
-230 275 -123 149 -235 280 -249 292 -19 17 -1055 670 -1138 718 -10 6 -36 22
-59 37 -50 32 -96 45 -196 53 -43 3 -88 8 -100 10 -13 2 -59 6 -103 10 -44 3
-93 8 -110 10 -16 2 -61 7 -98 10 -37 4 -76 8 -85 10 -9 1 -54 6 -98 9 -45 4
-97 8 -115 11 -19 2 -63 6 -99 10 -36 3 -83 8 -105 10 -72 8 -192 20 -300 30
-15 1 -76 115 -284 530 -281 561 -297 587 -386 629 -60 29 -167 31 -232 6z"/>
<path d="M4540 5529 c-126 -34 -202 -79 -292 -170 -188 -190 -217 -489 -69
-715 153 -234 436 -327 697 -229 112 42 203 116 275 223 180 269 104 631 -169
809 -97 63 -173 86 -297 89 -60 1 -126 -2 -145 -7z"/>
<path d="M2969 2317 c-20 -8 -52 -23 -70 -35 -36 -23 -36 -23 -153 -177 -41
-55 -79 -104 -83 -110 -5 -5 -53 -69 -107 -142 -92 -124 -100 -132 -139 -139
-23 -4 -44 -8 -47 -9 -3 0 -21 -4 -40 -8 -19 -4 -44 -9 -55 -11 -23 -5 -467
-94 -505 -101 -65 -13 -76 -15 -95 -19 -53 -11 -283 -57 -305 -61 -14 -3 -36
-7 -50 -10 -14 -3 -36 -7 -50 -10 -96 -18 -188 -39 -210 -47 -130 -48 -208
-199 -176 -338 18 -77 76 -154 140 -187 40 -21 114 -40 146 -38 23 2 111 15
135 21 8 2 567 114 638 128 84 17 245 49 262 52 11 2 31 6 45 9 14 3 34 7 45
9 390 75 459 94 526 148 15 13 423 551 478 632 78 114 70 258 -19 360 -55 63
-111 89 -199 93 -48 2 -90 -2 -112 -10z"/>
</g>
</svg>
